<svg width="50" height="50" viewBox="0 0 50 50" fill="none" xmlns="http://www.w3.org/2000/svg">
<rect width="50" height="50" rx="25" fill="#FF9D15"/>
<path d="M15 35C14.3125 35 13.7242 34.7554 13.235 34.2663C12.7458 33.7771 12.5008 33.1883 12.5 32.5V17.5C12.5 16.8125 12.745 16.2242 13.235 15.735C13.725 15.2458 14.3133 15.0008 15 15H35C35.6875 15 36.2763 15.245 36.7663 15.735C37.2563 16.225 37.5008 16.8133 37.5 17.5V32.5C37.5 33.1875 37.2554 33.7763 36.7663 34.2663C36.2771 34.7563 35.6883 35.0008 35 35H15ZM25 26.25L15 20V32.5H35V20L25 26.25ZM25 23.75L35 17.5H15L25 23.75ZM15 20V17.5V32.5V20Z" fill="white"/>
</svg>
