<svg width="50" height="50" viewBox="0 0 50 50" fill="none" xmlns="http://www.w3.org/2000/svg">
<rect width="50" height="50" rx="25" fill="#2196F3"/>
<path d="M25 35C27.6522 35 30.1957 33.9464 32.0711 32.0711C33.9464 30.1957 35 27.6522 35 25C35 22.3478 33.9464 19.8043 32.0711 17.9289C30.1957 16.0536 27.6522 15 25 15C22.3478 15 19.8043 16.0536 17.9289 17.9289C16.0536 19.8043 15 22.3478 15 25C15 27.6522 16.0536 30.1957 17.9289 32.0711C19.8043 33.9464 22.3478 35 25 35ZM25 12.5C26.6415 12.5 28.267 12.8233 29.7835 13.4515C31.3001 14.0797 32.6781 15.0004 33.8388 16.1612C34.9996 17.3219 35.9203 18.6999 36.5485 20.2165C37.1767 21.733 37.5 23.3585 37.5 25C37.5 28.3152 36.183 31.4946 33.8388 33.8388C31.4946 36.183 28.3152 37.5 25 37.5C18.0875 37.5 12.5 31.875 12.5 25C12.5 21.6848 13.817 18.5054 16.1612 16.1612C18.5054 13.817 21.6848 12.5 25 12.5ZM25.625 18.75V25.3125L31.25 28.65L30.3125 30.1875L23.75 26.25V18.75H25.625Z" fill="white"/>
</svg>
