<svg width="50" height="50" viewBox="0 0 50 50" fill="none" xmlns="http://www.w3.org/2000/svg">
<rect width="50" height="50" rx="25" fill="#8D6E63"/>
<path fill-rule="evenodd" clip-rule="evenodd" d="M30.3398 22.8398C30.3398 24.1659 29.8131 25.4377 28.8754 26.3754C27.9377 27.3131 26.6659 27.8398 25.3398 27.8398C24.0138 27.8398 22.742 27.3131 21.8043 26.3754C20.8666 25.4377 20.3398 24.1659 20.3398 22.8398C20.3398 21.5138 20.8666 20.242 21.8043 19.3043C22.742 18.3666 24.0138 17.8398 25.3398 17.8398C26.6659 17.8398 27.9377 18.3666 28.8754 19.3043C29.8131 20.242 30.3398 21.5138 30.3398 22.8398ZM27.8398 22.8398C27.8398 23.5029 27.5765 24.1388 27.1076 24.6076C26.6388 25.0765 26.0029 25.3398 25.3398 25.3398C24.6768 25.3398 24.0409 25.0765 23.5721 24.6076C23.1032 24.1388 22.8398 23.5029 22.8398 22.8398C22.8398 22.1768 23.1032 21.5409 23.5721 21.0721C24.0409 20.6032 24.6768 20.3398 25.3398 20.3398C26.0029 20.3398 26.6388 20.6032 27.1076 21.0721C27.5765 21.5409 27.8398 22.1768 27.8398 22.8398Z" fill="white"/>
<path fill-rule="evenodd" clip-rule="evenodd" d="M17.2425 30.6474C15.6311 29.1131 14.5108 27.1354 14.0233 24.9644C13.5358 22.7934 13.7031 20.5266 14.5039 18.4507C15.3048 16.3748 16.7032 14.5829 18.5224 13.3018C20.3416 12.0206 22.4999 11.3077 24.7242 11.2531C26.9486 11.1986 29.1392 11.8049 31.019 12.9953C32.8988 14.1858 34.3834 15.9069 35.285 17.9411C36.1866 19.9753 36.4648 22.2312 36.0843 24.4235C35.7038 26.6157 34.6818 28.6459 33.1475 30.2574L25.39 38.4049L17.2425 30.6474ZM31.3375 28.5336L25.3038 34.8711L18.9663 28.8374C17.713 27.644 16.8417 26.1059 16.4626 24.4173C16.0835 22.7288 16.2135 20.9658 16.8364 19.3512C17.4592 17.7367 18.5469 16.343 19.9618 15.3466C21.3766 14.3501 23.0552 13.7956 24.7852 13.7531C26.5153 13.7106 28.2191 14.1821 29.6811 15.1079C31.1432 16.0338 32.2979 17.3723 32.9993 18.9544C33.7006 20.5365 33.917 22.291 33.6213 23.996C33.3255 25.7011 32.5307 27.2802 31.3375 28.5336Z" fill="white"/>
</svg>
