<svg width="50" height="50" viewBox="0 0 50 50" fill="none" xmlns="http://www.w3.org/2000/svg">
<rect width="50" height="50" rx="25" fill="#4CAF50"/>
<path d="M18.275 23.4875C20.075 27.025 22.975 29.925 26.5125 31.725L29.2625 28.975C29.6125 28.625 30.1 28.525 30.5375 28.6625C31.9375 29.125 33.4375 29.375 35 29.375C35.3315 29.375 35.6495 29.5067 35.8839 29.7411C36.1183 29.9755 36.25 30.2935 36.25 30.625V35C36.25 35.3315 36.1183 35.6495 35.8839 35.8839C35.6495 36.1183 35.3315 36.25 35 36.25C29.3641 36.25 23.9591 34.0112 19.974 30.026C15.9888 26.0409 13.75 20.6359 13.75 15C13.75 14.6685 13.8817 14.3505 14.1161 14.1161C14.3505 13.8817 14.6685 13.75 15 13.75H19.375C19.7065 13.75 20.0245 13.8817 20.2589 14.1161C20.4933 14.3505 20.625 14.6685 20.625 15C20.625 16.5625 20.875 18.0625 21.3375 19.4625C21.475 19.9 21.375 20.3875 21.025 20.7375L18.275 23.4875Z" fill="white"/>
</svg>
